<svg width="512" height="512" viewBox="0 0 512 512" fill="none" xmlns="http://www.w3.org/2000/svg">
<circle cx="256" cy="256" r="256" fill="#5BADF8"/>
<path d="M226.506 357.816C227.489 353.835 228.619 349.509 229.897 344.84C231.175 340.121 232.503 335.329 233.879 330.462C235.255 325.547 236.607 320.681 237.934 315.864C239.31 311.047 240.564 306.5 241.694 302.224C242.825 297.947 243.783 294.089 244.57 290.648C245.405 287.207 245.971 284.43 246.266 282.316L247.077 276.344C247.224 275.902 247.372 275.41 247.519 274.87C247.716 274.329 247.986 273.837 248.33 273.395C248.674 272.903 249.117 272.486 249.657 272.142C250.247 271.798 250.96 271.625 251.795 271.625C253.319 271.625 254.597 271.896 255.629 272.437C256.662 272.977 257.473 273.715 258.062 274.648C258.701 275.533 259.144 276.565 259.39 277.745C259.635 278.925 259.758 280.154 259.758 281.432C259.758 282.71 259.66 284.012 259.463 285.339C259.267 286.617 259.046 287.772 258.8 288.805C257.178 295.539 255.31 302.347 253.196 309.228C251.132 316.06 249.264 322.942 247.593 329.873C249.51 328.054 251.574 326.333 253.786 324.711C255.998 323.04 258.308 321.59 260.717 320.361C263.174 319.083 265.681 318.076 268.237 317.338C270.793 316.601 273.349 316.232 275.905 316.232C278.609 316.232 280.944 316.626 282.91 317.412C284.876 318.199 286.498 319.28 287.776 320.656C289.054 321.983 289.988 323.581 290.578 325.449C291.217 327.317 291.536 329.332 291.536 331.495C291.536 332.527 291.462 333.608 291.315 334.739C291.217 335.82 291.045 336.877 290.799 337.909C289.521 343.021 287.702 347.592 285.343 351.623C283.033 355.654 280.378 359.266 277.38 362.461C274.431 365.607 271.211 368.409 267.721 370.867C264.28 373.275 260.791 375.438 257.251 377.355C254.941 378.584 252.705 379.542 250.542 380.23C248.428 380.869 246.339 381.189 244.275 381.189C242.26 381.189 240.711 380.992 239.63 380.599C238.598 380.157 237.664 379.518 236.828 378.682C236.582 379.174 236.263 379.69 235.87 380.23C235.526 380.771 235.083 381.287 234.542 381.779C234.051 382.221 233.437 382.59 232.699 382.885C232.011 383.18 231.225 383.327 230.34 383.327C227.538 383.327 225.547 382.639 224.368 381.263C223.188 379.837 222.598 377.945 222.598 375.585C222.598 374.75 222.647 373.914 222.746 373.079C222.893 372.194 223.09 371.334 223.335 370.498L226.506 357.816ZM273.398 327.808C271.088 327.808 268.557 328.398 265.804 329.578C263.101 330.757 260.373 332.232 257.62 334.001C254.868 335.722 252.213 337.59 249.657 339.605C247.101 341.571 244.84 343.341 242.874 344.914C242.284 346.929 241.694 348.87 241.104 350.738C240.515 352.606 239.925 354.499 239.335 356.416C238.794 358.333 238.278 360.299 237.787 362.314C237.344 364.329 236.951 366.467 236.607 368.729L236.165 371.604L236.607 372.931C237.639 372.341 238.573 371.899 239.409 371.604C240.293 371.309 241.129 371.063 241.916 370.867C242.751 370.621 243.611 370.375 244.496 370.129C245.381 369.884 246.364 369.54 247.445 369.097C255.162 366 261.626 361.847 266.836 356.637C272.096 351.426 275.684 345.012 277.601 337.393C277.847 336.312 278.043 335.353 278.191 334.518C278.338 333.682 278.412 332.92 278.412 332.232C278.412 330.757 278.019 329.651 277.232 328.914C276.446 328.177 275.168 327.808 273.398 327.808ZM324.936 286.372C325.083 284.7 325.28 282.882 325.526 280.916C325.772 278.949 326.165 277.131 326.706 275.459C327.246 273.788 327.959 272.412 328.844 271.331C329.778 270.2 330.957 269.635 332.383 269.635C333.169 269.635 334.029 269.782 334.963 270.077C335.946 270.372 336.856 270.79 337.691 271.331C338.576 271.822 339.313 272.437 339.903 273.174C340.493 273.911 340.788 274.722 340.788 275.607C340.788 276 340.714 276.467 340.567 277.008C340.419 277.499 340.297 277.991 340.198 278.482L321.766 352.36C321.028 355.31 320.414 358.136 319.922 360.839C319.431 363.494 319.062 365.681 318.816 367.401V369.171C318.816 370.646 318.718 372.268 318.521 374.037C318.325 375.757 317.956 377.38 317.416 378.903C316.875 380.378 316.113 381.607 315.13 382.59C314.196 383.622 312.967 384.138 311.443 384.138C310.116 384.138 308.961 383.843 307.978 383.253C306.995 382.713 306.184 382 305.545 381.115C304.906 380.23 304.439 379.297 304.144 378.313C303.849 377.281 303.702 376.323 303.702 375.438C303.702 374.652 303.775 373.693 303.923 372.562C304.07 371.383 304.242 370.179 304.439 368.95C304.685 367.672 304.931 366.418 305.176 365.189C305.422 363.911 305.668 362.806 305.914 361.872L324.936 286.372ZM341.82 353.761C342.558 350.763 343.688 347.592 345.212 344.25C346.785 340.858 348.825 337.442 351.332 334.001C353.838 330.561 356.837 327.194 360.327 323.9C363.866 320.607 367.945 317.535 372.566 314.684C373.303 314.242 374.434 313.775 375.958 313.283C377.481 312.743 379.054 312.423 380.676 312.325C382.593 310.26 385.174 309.228 388.418 309.228C392.252 309.228 395.472 310.211 398.077 312.177C400.731 314.094 402.918 316.724 404.639 320.066C405.179 321.148 405.671 322.205 406.113 323.237C406.605 324.269 406.998 325.375 407.293 326.555C407.637 327.685 407.907 328.914 408.104 330.241C408.301 331.568 408.399 333.068 408.399 334.739C408.399 338.622 407.785 342.579 406.556 346.609C405.327 350.64 403.582 354.572 401.321 358.406C399.06 362.24 396.307 365.927 393.063 369.466C389.868 372.956 386.304 376.102 382.372 378.903C379.718 380.82 376.769 382.295 373.524 383.327C370.329 384.409 366.741 384.949 362.76 384.949C358.975 384.949 355.682 384.433 352.88 383.401C350.127 382.418 347.817 380.992 345.949 379.125C344.131 377.257 342.754 375.02 341.82 372.415C340.936 369.81 340.493 366.91 340.493 363.715C340.493 360.618 340.936 357.3 341.82 353.761ZM354.06 354.72C353.765 355.85 353.543 356.932 353.396 357.964C353.298 358.947 353.249 359.905 353.249 360.839C353.249 362.461 353.445 363.985 353.838 365.411C354.281 366.787 354.969 367.991 355.903 369.023C356.837 370.007 357.992 370.793 359.368 371.383C360.794 371.924 362.514 372.194 364.529 372.194C368.265 372.194 371.73 371.26 374.925 369.392C378.169 367.475 381.045 365.091 383.552 362.24C386.059 359.389 388.148 356.342 389.819 353.098C391.539 349.804 392.743 346.781 393.432 344.029C393.874 342.308 394.243 340.686 394.538 339.163C394.882 337.639 395.054 336.238 395.054 334.96C395.054 333.682 394.808 332.502 394.316 331.421C393.874 330.29 393.284 329.037 392.547 327.661C392.104 326.825 391.662 325.965 391.22 325.08C390.777 324.146 390.384 323.237 390.04 322.352C389.647 323.04 389.229 323.655 388.787 324.195C388.344 324.687 387.681 325.154 386.796 325.596C385.911 325.989 384.707 326.358 383.183 326.702C381.659 327.046 379.669 327.341 377.211 327.587C375.589 328.128 373.942 328.963 372.271 330.094C370.6 331.224 368.953 332.551 367.331 334.075C365.758 335.599 364.234 337.246 362.76 339.015C361.334 340.785 360.032 342.603 358.852 344.471C357.722 346.29 356.714 348.084 355.829 349.854C354.993 351.623 354.404 353.245 354.06 354.72ZM425.136 416.063C424.743 416.063 424.3 415.965 423.809 415.769C423.317 415.621 422.85 415.351 422.408 414.958C422.014 414.613 421.67 414.146 421.375 413.557C421.081 413.016 420.933 412.352 420.933 411.566C420.933 411.025 421.007 410.46 421.154 409.87C421.548 408.248 421.965 406.921 422.408 405.889C422.85 404.906 423.489 404.07 424.325 403.382C425.16 402.694 426.291 402.104 427.716 401.612C429.142 401.17 431.01 400.703 433.32 400.211C434.794 399.917 436.171 399.572 437.449 399.179C438.776 398.835 439.857 398.393 440.693 397.852C443.2 395.64 445.313 393.354 447.034 390.995C448.803 388.636 450.278 386.178 451.458 383.622C452.686 381.115 453.694 378.535 454.48 375.88C455.316 373.226 456.103 370.523 456.84 367.77C457.135 366.836 457.381 365.878 457.577 364.895C457.823 363.862 458.118 362.707 458.462 361.429C456.594 363.051 454.653 364.673 452.637 366.295C450.622 367.917 448.557 369.368 446.444 370.646C444.33 371.924 442.167 372.98 439.956 373.816C437.793 374.602 435.63 374.996 433.467 374.996C432.189 374.996 430.739 374.602 429.117 373.816C427.544 373.029 426.045 371.997 424.62 370.719C423.194 369.441 421.99 367.967 421.007 366.295C420.024 364.575 419.532 362.781 419.532 360.913C419.532 359.733 419.68 358.455 419.975 357.079C420.27 355.703 420.54 354.474 420.786 353.393C421.572 350.148 422.727 347.003 424.251 343.955C425.775 340.908 427.544 338.007 429.56 335.255C431.575 332.502 433.787 329.897 436.195 327.439C438.604 324.933 441.111 322.622 443.716 320.509C446.96 317.854 450.204 315.938 453.448 314.758C456.692 313.578 460.133 312.988 463.771 312.988C465.294 312.988 466.744 313.062 468.121 313.209C469.546 313.357 470.873 313.676 472.102 314.168C473.38 314.61 474.56 315.299 475.641 316.232C476.722 317.117 477.706 318.297 478.59 319.771C478.787 320.116 478.934 320.533 479.033 321.025C479.18 321.467 479.254 321.861 479.254 322.205C479.254 322.598 479.131 323.581 478.885 325.154C478.689 326.678 478.394 328.595 478 330.905C477.656 333.166 477.214 335.722 476.673 338.573C476.182 341.375 475.666 344.225 475.125 347.125C474.584 349.976 474.044 352.803 473.503 355.604C472.962 358.357 472.446 360.839 471.955 363.051C471.119 366.934 470.062 370.94 468.784 375.069C467.555 379.198 466.032 383.229 464.213 387.161C462.443 391.093 460.354 394.805 457.946 398.294C455.537 401.784 452.736 404.832 449.541 407.437C446.346 410.091 442.733 412.18 438.702 413.704C434.672 415.277 430.149 416.063 425.136 416.063ZM432.435 355.015C432.288 355.604 432.14 356.219 431.993 356.858C431.894 357.448 431.845 358.038 431.845 358.627C431.845 359.709 432.042 360.643 432.435 361.429C432.828 362.216 433.541 362.609 434.573 362.609C436.195 362.609 438.088 362.044 440.25 360.913C442.462 359.733 444.65 358.259 446.812 356.489C449.024 354.72 451.089 352.803 453.006 350.738C454.972 348.674 456.52 346.708 457.651 344.84C458.142 344.053 458.781 342.972 459.568 341.596C460.403 340.219 461.215 338.745 462.001 337.172C462.837 335.55 463.574 333.952 464.213 332.379C464.852 330.757 465.245 329.332 465.393 328.103C465.393 327.267 465.221 326.506 464.876 325.817C464.532 325.08 464.237 324.072 463.992 322.794H463.328C462.148 322.794 460.797 323.188 459.273 323.974C457.749 324.711 456.127 325.694 454.407 326.923C452.736 328.152 451.04 329.553 449.319 331.126C447.599 332.65 445.977 334.223 444.453 335.845C442.929 337.418 441.528 338.966 440.25 340.49C439.022 341.964 438.063 343.267 437.375 344.397C436.343 346.02 435.384 347.666 434.5 349.337C433.664 350.959 432.976 352.852 432.435 355.015Z" fill="#F8F8F8"/>
<path d="M226.506 357.816L228.931 358.423L228.933 358.416L226.506 357.816ZM229.897 344.84L232.309 345.5L232.311 345.493L229.897 344.84ZM233.879 330.462L236.285 331.143L236.286 331.136L233.879 330.462ZM237.934 315.864L235.53 315.177L235.527 315.188L235.524 315.2L237.934 315.864ZM244.57 290.648L242.14 290.058L242.136 290.074L242.133 290.091L244.57 290.648ZM246.266 282.316L248.742 282.662L248.743 282.653L246.266 282.316ZM247.077 276.344L244.705 275.554L244.631 275.776L244.599 276.008L247.077 276.344ZM247.519 274.87L245.17 274.015L245.134 274.112L245.107 274.212L247.519 274.87ZM248.33 273.395L250.303 274.93L250.342 274.88L250.378 274.829L248.33 273.395ZM249.657 272.142L248.398 269.982L248.356 270.007L248.315 270.032L249.657 272.142ZM258.062 274.648L255.949 275.983L255.99 276.049L256.036 276.112L258.062 274.648ZM259.463 285.339L261.934 285.72L261.936 285.706L259.463 285.339ZM258.8 288.805L261.23 289.39L261.232 289.384L258.8 288.805ZM253.196 309.228L250.806 308.494L250.803 308.505L253.196 309.228ZM247.593 329.873L245.162 329.287L243.181 337.504L249.313 331.686L247.593 329.873ZM253.786 324.711L255.265 326.727L255.279 326.717L255.293 326.706L253.786 324.711ZM260.717 320.361L261.853 322.588L261.862 322.584L261.87 322.579L260.717 320.361ZM282.91 317.412L281.981 319.733L282.91 317.412ZM287.776 320.656L285.944 322.357L285.959 322.374L285.975 322.39L287.776 320.656ZM290.578 325.449L288.194 326.202L288.203 326.23L288.212 326.258L290.578 325.449ZM291.315 334.739L288.836 334.415L288.83 334.464L288.825 334.512L291.315 334.739ZM290.799 337.909L293.224 338.516L293.228 338.502L293.231 338.488L290.799 337.909ZM285.343 351.623L283.185 350.36L283.179 350.37L283.174 350.38L285.343 351.623ZM277.38 362.461L275.557 360.751L275.556 360.752L277.38 362.461ZM267.721 370.867L269.155 372.915L269.161 372.911L267.721 370.867ZM257.251 377.355L258.425 379.562L258.434 379.558L258.442 379.553L257.251 377.355ZM250.542 380.23L251.265 382.623L251.283 382.618L251.3 382.613L250.542 380.23ZM239.63 380.599L238.645 382.897L238.71 382.925L238.776 382.949L239.63 380.599ZM236.828 378.682L238.596 376.914L236.143 374.462L234.592 377.564L236.828 378.682ZM235.87 380.23L233.848 378.76L233.802 378.823L233.76 378.888L235.87 380.23ZM234.542 381.779L236.215 383.637L236.224 383.629L234.542 381.779ZM232.699 382.885L231.771 380.564L231.742 380.575L231.714 380.587L232.699 382.885ZM224.368 381.263L222.442 382.857L222.455 382.873L222.47 382.89L224.368 381.263ZM222.746 373.079L220.28 372.668L220.27 372.727L220.263 372.787L222.746 373.079ZM223.335 370.498L225.734 371.203L225.748 371.154L225.761 371.104L223.335 370.498ZM265.804 329.578L264.819 327.28L264.812 327.283L264.804 327.286L265.804 329.578ZM257.62 334.001L258.945 336.121L258.959 336.113L258.972 336.104L257.62 334.001ZM249.657 339.605L251.182 341.587L251.193 341.577L251.205 341.568L249.657 339.605ZM242.874 344.914L241.312 342.961L240.696 343.454L240.475 344.211L242.874 344.914ZM239.335 356.416L236.946 355.68L236.937 355.708L236.929 355.737L239.335 356.416ZM237.787 362.314L235.358 361.722L235.351 361.75L235.345 361.778L237.787 362.314ZM236.607 368.729L239.078 369.109L239.078 369.105L236.607 368.729ZM236.165 371.604L233.694 371.224L233.602 371.821L233.793 372.395L236.165 371.604ZM236.607 372.931L234.235 373.722L235.2 376.615L237.847 375.102L236.607 372.931ZM239.409 371.604L238.618 369.232L238.597 369.239L238.577 369.247L239.409 371.604ZM241.916 370.867L242.522 373.292L242.572 373.28L242.621 373.265L241.916 370.867ZM247.445 369.097L246.514 366.777L246.506 366.78L246.499 366.783L247.445 369.097ZM266.836 356.637L265.077 354.861L265.069 354.869L266.836 356.637ZM277.601 337.393L280.026 338.003L280.033 337.975L280.039 337.947L277.601 337.393ZM228.933 358.416C229.91 354.458 231.035 350.153 232.309 345.5L227.486 344.18C226.204 348.866 225.068 353.212 224.079 357.217L228.933 358.416ZM232.311 345.493C233.586 340.784 234.911 336 236.285 331.143L231.473 329.782C230.095 334.657 228.765 339.458 227.484 344.186L232.311 345.493ZM236.286 331.136C237.664 326.218 239.016 321.348 240.344 316.528L235.524 315.2C234.198 320.013 232.847 324.876 231.471 329.788L236.286 331.136ZM240.338 316.551C241.718 311.72 242.976 307.157 244.111 302.863L239.277 301.585C238.152 305.843 236.903 310.374 235.53 315.177L240.338 316.551ZM244.111 302.863C245.247 298.566 246.213 294.679 247.007 291.205L242.133 290.091C241.354 293.498 240.402 297.329 239.277 301.585L244.111 302.863ZM246.999 291.238C247.843 287.762 248.43 284.894 248.742 282.662L243.79 281.971C243.511 283.967 242.967 286.653 242.14 290.058L246.999 291.238ZM248.743 282.653L249.554 276.681L244.599 276.008L243.788 281.98L248.743 282.653ZM249.448 277.135C249.613 276.641 249.774 276.104 249.931 275.527L245.107 274.212C244.97 274.716 244.835 275.163 244.705 275.554L249.448 277.135ZM249.869 275.724C249.978 275.422 250.124 275.161 250.303 274.93L246.357 271.86C245.848 272.514 245.453 273.236 245.17 274.015L249.869 275.724ZM250.378 274.829C250.521 274.625 250.717 274.43 250.999 274.251L248.315 270.032C247.516 270.541 246.827 271.182 246.282 271.961L250.378 274.829ZM250.917 274.301C251.047 274.225 251.304 274.125 251.795 274.125V269.125C250.616 269.125 249.447 269.37 248.398 269.982L250.917 274.301ZM251.795 274.125C253.035 274.125 253.888 274.347 254.469 274.651L256.789 270.222C255.306 269.445 253.603 269.125 251.795 269.125V274.125ZM254.469 274.651C255.134 274.999 255.607 275.442 255.949 275.983L260.176 273.313C259.338 271.987 258.189 270.955 256.789 270.222L254.469 274.651ZM256.036 276.112C256.449 276.684 256.761 277.383 256.942 278.255L261.837 277.235C261.527 275.748 260.954 274.383 260.089 273.185L256.036 276.112ZM256.942 278.255C257.151 279.257 257.258 280.315 257.258 281.432H262.258C262.258 279.993 262.12 278.592 261.837 277.235L256.942 278.255ZM257.258 281.432C257.258 282.581 257.17 283.761 256.99 284.973L261.936 285.706C262.15 284.263 262.258 282.838 262.258 281.432H257.258ZM256.992 284.959C256.804 286.184 256.595 287.271 256.368 288.226L261.232 289.384C261.496 288.273 261.73 287.05 261.934 285.719L256.992 284.959ZM256.369 288.219C254.76 294.901 252.906 301.66 250.806 308.494L255.586 309.962C257.714 303.033 259.596 296.176 261.23 289.39L256.369 288.219ZM250.803 308.505C248.725 315.383 246.845 322.31 245.162 329.287L250.023 330.459C251.683 323.574 253.539 316.738 255.589 309.951L250.803 308.505ZM249.313 331.686C251.151 329.943 253.134 328.29 255.265 326.727L252.308 322.695C250.014 324.377 247.868 326.165 245.872 328.059L249.313 331.686ZM255.293 326.706C257.391 325.121 259.578 323.749 261.853 322.588L259.581 318.134C257.039 319.431 254.605 320.96 252.279 322.717L255.293 326.706ZM261.87 322.579C264.187 321.375 266.54 320.43 268.93 319.74L267.544 314.936C264.823 315.721 262.162 316.792 259.563 318.143L261.87 322.579ZM268.93 319.74C271.27 319.065 273.593 318.732 275.905 318.732V313.732C273.105 313.732 270.316 314.137 267.544 314.936L268.93 319.74ZM275.905 318.732C278.375 318.732 280.38 319.093 281.981 319.733L283.838 315.091C281.507 314.159 278.843 313.732 275.905 313.732V318.732ZM281.981 319.733C283.648 320.4 284.948 321.285 285.944 322.357L289.608 318.955C288.048 317.275 286.104 315.997 283.838 315.091L281.981 319.733ZM285.975 322.39C286.969 323.422 287.712 324.678 288.194 326.202L292.962 324.696C292.263 322.484 291.139 320.544 289.577 318.922L285.975 322.39ZM288.212 326.258C288.754 327.842 289.036 329.581 289.036 331.495H294.036C294.036 329.083 293.679 326.792 292.943 324.64L288.212 326.258ZM289.036 331.495C289.036 332.408 288.971 333.381 288.836 334.415L293.794 335.062C293.954 333.835 294.036 332.645 294.036 331.495H289.036ZM288.825 334.512C288.737 335.478 288.584 336.417 288.367 337.33L293.231 338.488C293.505 337.337 293.696 336.163 293.805 334.965L288.825 334.512ZM288.373 337.303C287.146 342.213 285.41 346.559 283.185 350.36L287.5 352.886C289.994 348.626 291.896 343.829 293.224 338.516L288.373 337.303ZM283.174 350.38C280.955 354.252 278.414 357.706 275.557 360.751L279.203 364.172C282.342 360.827 285.111 357.056 287.512 352.866L283.174 350.38ZM275.556 360.752C272.722 363.774 269.631 366.464 266.282 368.823L269.161 372.911C272.791 370.354 276.139 367.44 279.204 364.171L275.556 360.752ZM266.288 368.819C262.921 371.175 259.513 373.287 256.061 375.157L258.442 379.553C262.069 377.589 265.639 375.376 269.155 372.915L266.288 368.819ZM256.077 375.148C253.881 376.316 251.783 377.212 249.784 377.848L251.3 382.613C253.626 381.873 256.002 380.851 258.425 379.562L256.077 375.148ZM249.819 377.837C247.923 378.41 246.078 378.689 244.275 378.689V383.689C246.601 383.689 248.934 383.328 251.265 382.623L249.819 377.837ZM244.275 378.689C242.366 378.689 241.16 378.495 240.484 378.25L238.776 382.949C240.263 383.489 242.153 383.689 244.275 383.689V378.689ZM240.615 378.301C239.89 377.991 239.219 377.537 238.596 376.914L235.06 380.45C236.109 381.498 237.305 382.323 238.645 382.897L240.615 378.301ZM234.592 377.564C234.419 377.909 234.177 378.308 233.848 378.76L237.891 381.701C238.349 381.072 238.745 380.438 239.064 379.8L234.592 377.564ZM233.76 378.888C233.551 379.217 233.26 379.566 232.861 379.929L236.224 383.629C236.907 383.008 237.5 382.325 237.979 381.573L233.76 378.888ZM232.87 379.921C232.636 380.131 232.288 380.357 231.771 380.564L233.628 385.206C234.585 384.823 235.466 384.311 236.215 383.637L232.87 379.921ZM231.714 380.587C231.389 380.726 230.947 380.827 230.34 380.827V385.827C231.503 385.827 232.633 385.633 233.684 385.183L231.714 380.587ZM230.34 380.827C227.869 380.827 226.761 380.214 226.266 379.636L222.47 382.89C224.333 385.064 227.207 385.827 230.34 385.827V380.827ZM226.294 379.669C225.577 378.803 225.098 377.526 225.098 375.585H220.098C220.098 378.363 220.799 380.871 222.442 382.857L226.294 379.669ZM225.098 375.585C225.098 374.848 225.142 374.11 225.228 373.371L220.263 372.787C220.153 373.718 220.098 374.652 220.098 375.585H225.098ZM225.212 373.49C225.343 372.701 225.517 371.94 225.734 371.203L220.937 369.793C220.662 370.728 220.443 371.686 220.28 372.668L225.212 373.49ZM225.761 371.104L228.931 358.423L224.081 357.21L220.91 369.892L225.761 371.104ZM273.398 325.308C270.665 325.308 267.795 326.004 264.819 327.28L266.789 331.875C269.319 330.791 271.511 330.308 273.398 330.308V325.308ZM264.804 327.286C261.966 328.525 259.121 330.065 256.268 331.899L258.972 336.104C261.624 334.399 264.235 332.99 266.804 331.869L264.804 327.286ZM256.295 331.881C253.465 333.65 250.737 335.57 248.109 337.642L251.205 341.568C253.69 339.609 256.27 337.794 258.945 336.121L256.295 331.881ZM248.133 337.623C245.568 339.597 243.294 341.376 241.312 342.961L244.436 346.866C246.387 345.305 248.635 343.546 251.182 341.587L248.133 337.623ZM240.475 344.211C239.889 346.211 239.305 348.136 238.721 349.985L243.488 351.491C244.084 349.605 244.679 347.647 245.273 345.616L240.475 344.211ZM238.721 349.985C238.129 351.859 237.537 353.758 236.946 355.68L241.724 357.151C242.312 355.239 242.901 353.353 243.488 351.491L238.721 349.985ZM236.929 355.737C236.38 357.684 235.856 359.679 235.358 361.722L240.215 362.906C240.7 360.919 241.209 358.981 241.741 357.094L236.929 355.737ZM235.345 361.778C234.89 363.852 234.487 366.043 234.135 368.352L239.078 369.105C239.415 366.892 239.799 364.807 240.228 362.85L235.345 361.778ZM234.136 368.348L233.694 371.224L238.635 371.984L239.078 369.109L234.136 368.348ZM233.793 372.395L234.235 373.722L238.979 372.141L238.536 370.813L233.793 372.395ZM237.847 375.102C238.79 374.563 239.585 374.193 240.241 373.961L238.577 369.247C237.561 369.605 236.488 370.12 235.367 370.761L237.847 375.102ZM240.199 373.976C241.032 373.698 241.806 373.471 242.522 373.292L241.309 368.441C240.452 368.656 239.555 368.92 238.618 369.232L240.199 373.976ZM242.621 373.265C243.444 373.023 244.292 372.781 245.165 372.538L243.827 367.721C242.931 367.97 242.058 368.219 241.21 368.468L242.621 373.265ZM245.165 372.538C246.166 372.26 247.243 371.881 248.392 371.411L246.499 366.783C245.485 367.198 244.596 367.507 243.827 367.721L245.165 372.538ZM248.376 371.417C256.367 368.211 263.126 363.882 268.604 358.404L265.069 354.869C260.126 359.812 253.958 363.79 246.514 366.777L248.376 371.417ZM268.596 358.413C274.199 352.862 278.004 346.036 280.026 338.003L275.177 336.783C273.364 343.988 269.993 349.991 265.077 354.861L268.596 358.413ZM280.039 337.947C280.291 336.837 280.497 335.838 280.653 334.952L275.729 334.083C275.59 334.869 275.403 335.786 275.163 336.839L280.039 337.947ZM280.653 334.952C280.82 334.005 280.912 333.095 280.912 332.232H275.912C275.912 332.745 275.857 333.359 275.729 334.083L280.653 334.952ZM280.912 332.232C280.912 330.329 280.397 328.454 278.942 327.09L275.523 330.738C275.641 330.849 275.912 331.185 275.912 332.232H280.912ZM278.942 327.09C277.473 325.713 275.419 325.308 273.398 325.308V330.308C274.917 330.308 275.419 330.641 275.523 330.738L278.942 327.09ZM324.936 286.372L327.36 286.982L327.409 286.789L327.426 286.591L324.936 286.372ZM326.706 275.459L324.327 274.69L326.706 275.459ZM328.844 271.331L326.916 269.738L326.909 269.747L328.844 271.331ZM334.963 270.077L334.211 272.461L334.228 272.467L334.245 272.472L334.963 270.077ZM337.691 271.331L336.333 273.429L336.404 273.475L336.477 273.516L337.691 271.331ZM340.567 277.008L342.961 277.726L342.971 277.696L342.979 277.666L340.567 277.008ZM340.198 278.482L342.624 279.088L342.638 279.03L342.65 278.973L340.198 278.482ZM321.766 352.36L324.191 352.967L324.191 352.966L321.766 352.36ZM319.922 360.839L322.381 361.295L322.382 361.287L319.922 360.839ZM318.816 367.401L316.342 367.048L316.316 367.224V367.401H318.816ZM318.521 374.037L321.005 374.321L321.006 374.313L318.521 374.037ZM317.416 378.903L319.763 379.764L319.767 379.752L319.772 379.739L317.416 378.903ZM315.13 382.59L313.362 380.822L313.318 380.866L313.276 380.913L315.13 382.59ZM307.978 383.253L309.264 381.11L309.224 381.086L309.183 381.063L307.978 383.253ZM304.144 378.313L301.74 379L301.745 379.016L301.749 379.032L304.144 378.313ZM303.923 372.562L306.402 372.886L306.404 372.873L303.923 372.562ZM304.439 368.95L301.984 368.478L301.977 368.516L301.97 368.555L304.439 368.95ZM305.176 365.189L307.628 365.68L307.63 365.671L307.631 365.662L305.176 365.189ZM305.914 361.872L308.331 362.508L308.335 362.495L308.338 362.482L305.914 361.872ZM327.426 286.591C327.571 284.955 327.764 283.167 328.007 281.226L323.045 280.605C322.796 282.596 322.596 284.446 322.446 286.152L327.426 286.591ZM328.007 281.226C328.235 279.396 328.598 277.733 329.084 276.229L324.327 274.69C323.732 276.528 323.308 278.503 323.045 280.605L328.007 281.226ZM329.084 276.229C329.553 274.781 330.135 273.701 330.779 272.914L326.909 269.747C325.783 271.123 324.94 272.796 324.327 274.69L329.084 276.229ZM330.771 272.923C331.246 272.348 331.727 272.135 332.383 272.135V267.135C330.187 267.135 328.309 268.052 326.916 269.738L330.771 272.923ZM332.383 272.135C332.86 272.135 333.463 272.225 334.211 272.461L335.716 267.693C334.596 267.339 333.478 267.135 332.383 267.135V272.135ZM334.245 272.472C335.009 272.701 335.702 273.021 336.333 273.429L339.05 269.232C338.01 268.559 336.884 268.043 335.682 267.683L334.245 272.472ZM336.477 273.516C337.098 273.861 337.579 274.27 337.951 274.736L341.855 271.612C341.048 270.603 340.054 269.783 338.906 269.145L336.477 273.516ZM337.951 274.736C338.212 275.062 338.288 275.329 338.288 275.607H343.288C343.288 274.115 342.774 272.761 341.855 271.612L337.951 274.736ZM338.288 275.607C338.288 275.706 338.267 275.941 338.155 276.35L342.979 277.666C343.162 276.993 343.288 276.294 343.288 275.607H338.288ZM338.172 276.289C338.003 276.854 337.861 277.422 337.747 277.992L342.65 278.973C342.732 278.56 342.836 278.144 342.961 277.726L338.172 276.289ZM337.773 277.877L319.34 351.755L324.191 352.966L342.624 279.088L337.773 277.877ZM319.34 351.754C318.591 354.75 317.965 357.63 317.463 360.392L322.382 361.287C322.863 358.642 323.465 355.869 324.191 352.967L319.34 351.754ZM317.464 360.384C316.969 363.056 316.594 365.28 316.342 367.048L321.291 367.755C321.53 366.082 321.892 363.931 322.381 361.295L317.464 360.384ZM316.316 367.401V369.171H321.316V367.401H316.316ZM316.316 369.171C316.316 370.537 316.225 372.065 316.037 373.761L321.006 374.313C321.211 372.47 321.316 370.754 321.316 369.171H316.316ZM316.038 373.753C315.861 375.299 315.532 376.734 315.059 378.067L319.772 379.739C320.38 378.025 320.789 376.216 321.005 374.321L316.038 373.753ZM315.068 378.043C314.636 379.221 314.057 380.127 313.362 380.822L316.898 384.358C318.169 383.086 319.113 381.535 319.763 379.764L315.068 378.043ZM313.276 380.913C312.864 381.368 312.335 381.638 311.443 381.638V386.638C313.599 386.638 315.528 385.876 316.984 384.267L313.276 380.913ZM311.443 381.638C310.497 381.638 309.801 381.432 309.264 381.11L306.692 385.397C308.121 386.255 309.736 386.638 311.443 386.638V381.638ZM309.183 381.063C308.515 380.695 307.988 380.228 307.572 379.652L303.518 382.579C304.38 383.772 305.475 384.73 306.773 385.444L309.183 381.063ZM307.572 379.652C307.086 378.979 306.748 378.294 306.539 377.595L301.749 379.032C302.13 380.299 302.726 381.482 303.518 382.579L307.572 379.652ZM306.548 377.627C306.304 376.772 306.202 376.047 306.202 375.438H301.202C301.202 376.598 301.395 377.79 301.74 379L306.548 377.627ZM306.202 375.438C306.202 374.796 306.263 373.952 306.402 372.886L301.444 372.239C301.288 373.434 301.202 374.507 301.202 375.438H306.202ZM306.404 372.873C306.547 371.723 306.715 370.547 306.908 369.345L301.97 368.555C301.769 369.81 301.593 371.043 301.442 372.252L306.404 372.873ZM306.894 369.422C307.139 368.15 307.383 366.902 307.628 365.68L302.725 364.699C302.478 365.934 302.231 367.194 301.984 368.478L306.894 369.422ZM307.631 365.662C307.87 364.421 308.104 363.373 308.331 362.508L303.496 361.235C303.232 362.238 302.974 363.402 302.721 364.717L307.631 365.662ZM308.338 362.482L327.36 286.982L322.512 285.761L303.489 361.261L308.338 362.482ZM341.82 353.761L344.246 354.368L344.248 354.358L341.82 353.761ZM345.212 344.25L342.944 343.198L342.941 343.206L342.937 343.213L345.212 344.25ZM360.327 323.9L358.624 322.07L358.617 322.076L358.611 322.082L360.327 323.9ZM372.566 314.684L371.28 312.54L371.266 312.548L371.253 312.556L372.566 314.684ZM375.958 313.283L376.725 315.662L376.759 315.651L376.794 315.639L375.958 313.283ZM380.676 312.325L380.828 314.82L381.827 314.76L382.508 314.026L380.676 312.325ZM398.077 312.177L396.571 314.173L396.592 314.189L396.613 314.204L398.077 312.177ZM404.639 320.066L406.875 318.948L406.868 318.935L406.862 318.922L404.639 320.066ZM406.113 323.237L403.815 324.222L403.835 324.267L403.856 324.312L406.113 323.237ZM407.293 326.555L404.868 327.161L404.883 327.222L404.901 327.283L407.293 326.555ZM406.556 346.609L404.164 345.88L406.556 346.609ZM401.321 358.406L399.167 357.136L401.321 358.406ZM393.063 369.466L391.22 367.777L391.219 367.778L393.063 369.466ZM382.372 378.903L380.921 376.867L380.915 376.872L380.908 376.877L382.372 378.903ZM373.524 383.327L372.766 380.945L372.745 380.952L372.723 380.959L373.524 383.327ZM352.88 383.401L353.744 381.055L353.732 381.051L353.721 381.047L352.88 383.401ZM345.949 379.125L344.158 380.869L344.17 380.88L344.181 380.892L345.949 379.125ZM341.82 372.415L339.453 373.219L339.46 373.239L339.467 373.259L341.82 372.415ZM354.06 354.72L356.479 355.351L356.487 355.319L356.494 355.288L354.06 354.72ZM353.396 357.964L350.921 357.61L350.914 357.663L350.908 357.715L353.396 357.964ZM353.838 365.411L351.428 366.075L351.442 366.126L351.458 366.176L353.838 365.411ZM355.903 369.023L354.049 370.701L354.069 370.723L354.09 370.745L355.903 369.023ZM359.368 371.383L358.383 373.681L358.432 373.702L358.482 373.72L359.368 371.383ZM374.925 369.392L376.187 371.55L376.197 371.544L374.925 369.392ZM389.819 353.098L387.603 351.94L387.6 351.946L387.596 351.953L389.819 353.098ZM393.432 344.029L391.01 343.406L391.008 343.414L391.006 343.422L393.432 344.029ZM394.538 339.163L392.099 338.612L392.09 338.65L392.083 338.688L394.538 339.163ZM394.316 331.421L391.988 332.332L392.013 332.394L392.04 332.455L394.316 331.421ZM392.547 327.661L390.337 328.83L390.343 328.841L392.547 327.661ZM391.22 325.08L388.96 326.15L388.972 326.174L388.984 326.198L391.22 325.08ZM390.04 322.352L392.37 321.446L390.47 316.56L387.869 321.112L390.04 322.352ZM388.787 324.195L390.645 325.868L390.684 325.824L390.722 325.778L388.787 324.195ZM386.796 325.596L387.811 327.881L387.863 327.858L387.914 327.832L386.796 325.596ZM377.211 327.587L376.962 325.099L376.685 325.127L376.42 325.215L377.211 327.587ZM367.331 334.075L365.619 332.253L365.605 332.266L365.592 332.28L367.331 334.075ZM362.76 339.015L360.839 337.415L360.826 337.431L360.813 337.447L362.76 339.015ZM358.852 344.471L356.738 343.136L356.734 343.144L356.729 343.151L358.852 344.471ZM355.829 349.854L353.593 348.735L353.58 348.761L353.568 348.786L355.829 349.854ZM344.248 354.358C344.942 351.536 346.016 348.514 347.487 345.287L342.937 343.213C341.361 346.671 340.173 349.99 339.393 353.164L344.248 354.358ZM347.48 345.302C348.976 342.077 350.928 338.8 353.352 335.474L349.311 332.529C346.721 336.084 344.594 339.64 342.944 343.198L347.48 345.302ZM353.352 335.474C355.758 332.172 358.651 328.919 362.042 325.719L358.611 322.082C355.023 325.468 351.919 328.95 349.311 332.529L353.352 335.474ZM362.03 325.731C365.435 322.562 369.381 319.587 373.879 316.812L371.253 312.556C366.51 315.483 362.296 318.653 358.624 322.07L362.03 325.731ZM373.852 316.828C374.342 316.534 375.256 316.136 376.725 315.662L375.19 310.904C373.612 311.413 372.265 311.949 371.28 312.54L373.852 316.828ZM376.794 315.639C378.096 315.177 379.438 314.904 380.828 314.82L380.525 309.829C378.671 309.942 376.867 310.308 375.121 310.927L376.794 315.639ZM382.508 314.026C383.879 312.55 385.753 311.728 388.418 311.728V306.728C384.594 306.728 381.308 307.971 378.844 310.624L382.508 314.026ZM388.418 311.728C391.807 311.728 394.472 312.589 396.571 314.173L399.583 310.182C396.471 307.834 392.697 306.728 388.418 306.728V311.728ZM396.613 314.204C398.904 315.859 400.849 318.166 402.416 321.211L406.862 318.922C404.988 315.282 402.558 312.33 399.54 310.151L396.613 314.204ZM402.403 321.184C402.923 322.225 403.394 323.238 403.815 324.222L408.411 322.252C407.948 321.172 407.436 320.07 406.875 318.948L402.403 321.184ZM403.856 324.312C404.272 325.185 404.61 326.133 404.868 327.161L409.718 325.948C409.386 324.617 408.938 323.354 408.37 322.162L403.856 324.312ZM404.901 327.283C405.205 328.28 405.45 329.387 405.631 330.608L410.577 329.875C410.365 328.441 410.069 327.09 409.685 325.827L404.901 327.283ZM405.631 330.608C405.806 331.788 405.899 333.162 405.899 334.739H410.899C410.899 332.973 410.795 331.348 410.577 329.875L405.631 330.608ZM405.899 334.739C405.899 338.355 405.327 342.066 404.164 345.88L408.947 347.338C410.242 343.092 410.899 338.889 410.899 334.739H405.899ZM404.164 345.88C402.996 349.712 401.334 353.463 399.167 357.136L403.474 359.676C405.83 355.682 407.657 351.568 408.947 347.338L404.164 345.88ZM399.167 357.136C397.002 360.809 394.356 364.356 391.22 367.777L394.906 371.155C398.259 367.497 401.118 363.672 403.474 359.676L399.167 357.136ZM391.219 367.778C388.145 371.136 384.714 374.165 380.921 376.867L383.823 380.939C387.895 378.038 391.591 374.776 394.907 371.154L391.219 367.778ZM380.908 376.877C378.477 378.632 375.768 379.99 372.766 380.945L374.282 385.709C377.769 384.6 380.958 383.008 383.836 380.93L380.908 376.877ZM372.723 380.959C369.828 381.939 366.517 382.449 362.76 382.449V387.449C366.966 387.449 370.831 386.878 374.326 385.695L372.723 380.959ZM362.76 382.449C359.194 382.449 356.206 381.962 353.744 381.055L352.016 385.747C355.157 386.904 358.755 387.449 362.76 387.449V382.449ZM353.721 381.047C351.279 380.175 349.296 378.936 347.717 377.357L344.181 380.892C346.338 383.049 348.975 384.661 352.039 385.755L353.721 381.047ZM347.74 377.38C346.187 375.785 344.994 373.861 344.174 371.571L339.467 373.259C340.514 376.18 342.074 378.729 344.158 380.869L347.74 377.38ZM344.188 371.611C343.404 369.303 342.993 366.68 342.993 363.715H337.993C337.993 367.14 338.468 370.317 339.453 373.219L344.188 371.611ZM342.993 363.715C342.993 360.855 343.402 357.742 344.246 354.368L339.395 353.155C338.469 356.858 337.993 360.381 337.993 363.715H342.993ZM351.641 354.089C351.325 355.3 351.083 356.474 350.921 357.61L355.871 358.317C356.003 357.389 356.205 356.401 356.479 355.351L351.641 354.089ZM350.908 357.715C350.802 358.776 350.749 359.818 350.749 360.839H355.749C355.749 359.993 355.793 359.118 355.884 358.213L350.908 357.715ZM350.749 360.839C350.749 362.665 350.97 364.414 351.428 366.075L356.248 364.746C355.92 363.557 355.749 362.258 355.749 360.839H350.749ZM351.458 366.176C352.005 367.877 352.868 369.395 354.049 370.701L357.757 367.346C357.07 366.587 356.556 365.697 356.218 364.646L351.458 366.176ZM354.09 370.745C355.281 371.999 356.728 372.971 358.383 373.681L360.353 369.085C359.256 368.615 358.392 368.014 357.715 367.302L354.09 370.745ZM358.482 373.72C360.265 374.397 362.303 374.694 364.529 374.694V369.694C362.725 369.694 361.322 369.45 360.255 369.045L358.482 373.72ZM364.529 374.694C368.704 374.694 372.605 373.644 376.187 371.55L373.664 367.234C370.855 368.876 367.826 369.694 364.529 369.694V374.694ZM376.197 371.544C379.67 369.492 382.75 366.939 385.429 363.891L381.674 360.589C379.34 363.244 376.669 365.458 373.653 367.24L376.197 371.544ZM385.429 363.891C388.066 360.892 390.273 357.676 392.041 354.243L387.596 351.953C386.023 355.008 384.051 357.886 381.674 360.589L385.429 363.891ZM392.035 354.255C393.82 350.838 395.109 347.627 395.857 344.635L391.006 343.422C390.378 345.935 389.258 348.771 387.603 351.94L392.035 354.255ZM395.853 344.651C396.306 342.889 396.686 341.217 396.992 339.638L392.083 338.688C391.799 340.155 391.442 341.728 391.01 343.406L395.853 344.651ZM396.976 339.713C397.352 338.047 397.554 336.459 397.554 334.96H392.554C392.554 336.017 392.411 337.231 392.099 338.612L396.976 339.713ZM397.554 334.96C397.554 333.353 397.243 331.817 396.592 330.386L392.04 332.455C392.373 333.188 392.554 334.011 392.554 334.96H397.554ZM396.645 330.51C396.158 329.265 395.522 327.92 394.751 326.48L390.343 328.841C391.046 330.153 391.591 331.315 391.988 332.332L396.645 330.51ZM394.756 326.491C394.323 325.673 393.89 324.83 393.456 323.962L388.984 326.198C389.434 327.099 389.886 327.977 390.337 328.83L394.756 326.491ZM393.479 324.01C393.06 323.125 392.691 322.271 392.37 321.446L387.71 323.258C388.077 324.203 388.495 325.167 388.96 326.15L393.479 324.01ZM387.869 321.112C387.536 321.695 387.195 322.192 386.852 322.612L390.722 325.778C391.263 325.117 391.758 324.385 392.211 323.592L387.869 321.112ZM386.928 322.523C386.772 322.696 386.408 322.995 385.678 323.36L387.914 327.832C388.953 327.313 389.916 326.677 390.645 325.868L386.928 322.523ZM385.781 323.312C385.108 323.611 384.081 323.936 382.632 324.264L383.734 329.141C385.333 328.78 386.715 328.368 387.811 327.881L385.781 323.312ZM382.632 324.264C381.248 324.576 379.369 324.859 376.962 325.099L377.46 330.075C379.968 329.824 382.071 329.516 383.734 329.141L382.632 324.264ZM376.42 325.215C374.547 325.84 372.697 326.787 370.87 328.023L373.672 332.164C375.187 331.139 376.63 330.416 378.002 329.959L376.42 325.215ZM370.87 328.023C369.078 329.235 367.329 330.647 365.619 332.253L369.043 335.897C370.578 334.455 372.121 333.213 373.672 332.164L370.87 328.023ZM365.592 332.28C363.952 333.868 362.368 335.58 360.839 337.415L364.68 340.616C366.101 338.911 367.565 337.33 369.071 335.871L365.592 332.28ZM360.813 337.447C359.329 339.289 357.971 341.185 356.738 343.136L360.966 345.806C362.093 344.022 363.34 342.281 364.707 340.583L360.813 337.447ZM356.729 343.151C355.561 345.03 354.515 346.892 353.593 348.735L358.065 350.972C358.913 349.276 359.882 347.55 360.975 345.791L356.729 343.151ZM353.568 348.786C352.678 350.672 352.019 352.463 351.625 354.152L356.494 355.288C356.788 354.027 357.309 352.574 358.09 350.921L353.568 348.786ZM423.809 415.769L424.737 413.447L424.634 413.406L424.527 413.374L423.809 415.769ZM422.408 414.958L424.069 413.089L424.061 413.083L424.054 413.076L422.408 414.958ZM421.375 413.557L423.612 412.439L423.592 412.399L423.57 412.36L421.375 413.557ZM421.154 409.87L423.58 410.476L423.582 410.468L423.584 410.459L421.154 409.87ZM422.408 405.889L420.128 404.863L420.119 404.883L420.11 404.904L422.408 405.889ZM427.716 401.612L426.975 399.225L426.938 399.236L426.901 399.249L427.716 401.612ZM433.32 400.211L432.83 397.76L432.815 397.763L432.8 397.766L433.32 400.211ZM437.449 399.179L436.821 396.759L436.767 396.773L436.714 396.79L437.449 399.179ZM440.693 397.852L442.051 399.951L442.207 399.85L442.347 399.727L440.693 397.852ZM447.034 390.995L445.034 389.495L445.024 389.509L445.014 389.522L447.034 390.995ZM451.458 383.622L449.213 382.522L449.2 382.548L449.188 382.574L451.458 383.622ZM454.48 375.88L452.096 375.13L452.089 375.15L452.083 375.17L454.48 375.88ZM456.84 367.77L454.456 367.017L454.439 367.07L454.425 367.123L456.84 367.77ZM457.577 364.895L455.145 364.315L455.135 364.36L455.126 364.404L457.577 364.895ZM458.462 361.429L460.876 362.079L463.004 354.173L456.823 359.542L458.462 361.429ZM439.956 373.816L440.81 376.165L440.825 376.16L440.839 376.155L439.956 373.816ZM429.117 373.816L427.999 376.052L428.013 376.059L428.027 376.065L429.117 373.816ZM424.62 370.719L426.288 368.858L424.62 370.719ZM421.007 366.295L418.836 367.536L418.844 367.549L418.852 367.563L421.007 366.295ZM420.786 353.393L418.356 352.804L418.352 352.821L418.348 352.839L420.786 353.393ZM436.195 327.439L437.981 329.189L437.99 329.18L437.998 329.172L436.195 327.439ZM443.716 320.509L445.291 322.45L445.299 322.444L443.716 320.509ZM468.121 313.209L467.854 315.695L467.863 315.696L468.121 313.209ZM472.102 314.168L471.174 316.489L471.228 316.511L471.284 316.53L472.102 314.168ZM475.641 316.232L474.007 318.124L474.032 318.146L474.058 318.167L475.641 316.232ZM478.59 319.771L480.761 318.531L480.748 318.508L480.734 318.485L478.59 319.771ZM479.033 321.025L476.581 321.515L476.612 321.668L476.661 321.815L479.033 321.025ZM478.885 325.154L476.415 324.768L476.41 324.801L476.406 324.834L478.885 325.154ZM478 330.905L475.536 330.485L475.532 330.507L475.529 330.529L478 330.905ZM476.673 338.573L474.217 338.107L474.214 338.124L474.211 338.141L476.673 338.573ZM475.125 347.125L477.581 347.591L477.583 347.584L475.125 347.125ZM473.503 355.604L475.956 356.086L475.958 356.078L473.503 355.604ZM471.955 363.051L469.514 362.509L469.512 362.517L469.511 362.525L471.955 363.051ZM468.784 375.069L466.396 374.33L466.392 374.343L466.388 374.356L468.784 375.069ZM464.213 387.161L461.944 386.112L461.938 386.123L461.933 386.135L464.213 387.161ZM449.541 407.437L447.961 405.499L447.952 405.507L447.943 405.514L449.541 407.437ZM438.702 413.704L437.818 411.366L437.806 411.37L437.793 411.375L438.702 413.704ZM431.993 356.858L429.557 356.296L429.539 356.371L429.527 356.447L431.993 356.858ZM440.25 360.913L441.409 363.129L441.418 363.124L441.427 363.119L440.25 360.913ZM446.812 356.489L445.251 354.537L445.24 354.546L445.229 354.554L446.812 356.489ZM453.006 350.738L451.196 349.014L451.185 349.026L451.174 349.037L453.006 350.738ZM457.651 344.84L455.531 343.515L455.521 343.53L455.512 343.545L457.651 344.84ZM459.568 341.596L457.431 340.298L457.414 340.327L457.397 340.355L459.568 341.596ZM462.001 337.172L459.779 336.027L459.772 336.04L459.765 336.054L462.001 337.172ZM464.213 332.379L466.529 333.32L466.534 333.308L466.539 333.296L464.213 332.379ZM465.393 328.103L467.875 328.401L467.893 328.252V328.103H465.393ZM464.876 325.817L462.611 326.875L462.625 326.905L462.64 326.935L464.876 325.817ZM463.992 322.794L466.447 322.322L466.057 320.294H463.992V322.794ZM459.273 323.974L460.362 326.225L460.391 326.21L460.42 326.196L459.273 323.974ZM454.407 326.923L452.954 324.889L452.94 324.899L452.926 324.909L454.407 326.923ZM449.319 331.126L450.977 332.997L450.992 332.984L451.006 332.971L449.319 331.126ZM444.453 335.845L446.249 337.584L446.262 337.57L446.275 337.556L444.453 335.845ZM440.25 340.49L438.335 338.883L438.33 338.889L440.25 340.49ZM437.375 344.397L439.484 345.74L439.498 345.719L439.51 345.697L437.375 344.397ZM434.5 349.337L432.29 348.168L432.283 348.18L432.277 348.193L434.5 349.337ZM425.136 413.563C425.15 413.563 425.029 413.564 424.737 413.447L422.88 418.09C423.571 418.366 424.335 418.563 425.136 418.563V413.563ZM424.527 413.374C424.434 413.346 424.28 413.277 424.069 413.089L420.747 416.826C421.42 417.424 422.2 417.896 423.09 418.163L424.527 413.374ZM424.054 413.076C423.96 412.994 423.798 412.811 423.612 412.439L419.139 414.675C419.543 415.482 420.069 416.233 420.761 416.839L424.054 413.076ZM423.57 412.36C423.524 412.274 423.433 412.047 423.433 411.566H418.433C418.433 412.658 418.638 413.758 419.181 414.754L423.57 412.36ZM423.433 411.566C423.433 411.253 423.476 410.892 423.58 410.476L418.729 409.264C418.538 410.028 418.433 410.797 418.433 411.566H423.433ZM423.584 410.459C423.958 408.914 424.338 407.732 424.706 406.873L420.11 404.904C419.593 406.11 419.137 407.582 418.725 409.281L423.584 410.459ZM424.688 406.915C424.972 406.283 425.374 405.757 425.914 405.312L422.735 401.452C421.605 402.383 420.729 403.528 420.128 404.863L424.688 406.915ZM425.914 405.312C426.448 404.872 427.285 404.405 428.531 403.976L426.901 399.249C425.297 399.802 423.872 400.516 422.735 401.452L425.914 405.312ZM428.457 404C429.781 403.589 431.567 403.14 433.84 402.657L432.8 397.766C430.452 398.266 428.503 398.751 426.975 399.225L428.457 404ZM433.81 402.663C435.357 402.353 436.816 401.989 438.184 401.569L436.714 396.79C435.525 397.155 434.232 397.48 432.83 397.76L433.81 402.663ZM438.076 401.599C439.572 401.211 440.924 400.68 442.051 399.951L439.335 395.753C438.791 396.105 437.98 396.459 436.821 396.759L438.076 401.599ZM442.347 399.727C444.971 397.411 447.212 394.994 449.054 392.468L445.014 389.522C443.414 391.715 441.429 393.869 439.039 395.977L442.347 399.727ZM449.034 392.495C450.904 390.002 452.471 387.393 453.727 384.67L449.188 382.574C448.085 384.963 446.703 387.27 445.034 389.495L449.034 392.495ZM453.702 384.722C454.992 382.091 456.051 379.38 456.877 376.591L452.083 375.17C451.337 377.689 450.381 380.139 449.213 382.522L453.702 384.722ZM456.865 376.631C457.712 373.942 458.508 371.203 459.255 368.417L454.425 367.123C453.697 369.842 452.92 372.511 452.096 375.13L456.865 376.631ZM459.224 368.523C459.547 367.501 459.815 366.454 460.029 365.385L455.126 364.404C454.946 365.301 454.723 366.172 454.456 367.017L459.224 368.523ZM460.009 365.474C460.248 364.47 460.537 363.339 460.876 362.079L456.048 360.779C455.699 362.075 455.398 363.255 455.145 364.315L460.009 365.474ZM456.823 359.542C454.979 361.142 453.062 362.744 451.07 364.348L454.205 368.243C456.243 366.602 458.209 364.96 460.101 363.317L456.823 359.542ZM451.07 364.348C449.137 365.903 447.164 367.289 445.15 368.506L447.737 372.785C449.951 371.446 452.107 369.932 454.205 368.243L451.07 364.348ZM445.15 368.506C443.161 369.709 441.135 370.698 439.072 371.477L440.839 376.155C443.2 375.263 445.499 374.138 447.737 372.785L445.15 368.506ZM439.101 371.466C437.195 372.16 435.32 372.496 433.467 372.496V377.496C435.94 377.496 438.391 377.045 440.81 376.165L439.101 371.466ZM433.467 372.496C432.689 372.496 431.62 372.251 430.208 371.566L428.027 376.065C429.858 376.953 431.689 377.496 433.467 377.496V372.496ZM430.235 371.58C428.879 370.902 427.562 370 426.288 368.858L422.951 372.581C424.528 373.994 426.21 375.157 427.999 376.052L430.235 371.58ZM426.288 368.858C425.057 367.754 424.016 366.48 423.162 365.028L418.852 367.563C419.964 369.453 421.331 371.129 422.951 372.581L426.288 368.858ZM423.177 365.055C422.397 363.689 422.032 362.319 422.032 360.913H417.032C417.032 363.243 417.651 365.461 418.836 367.536L423.177 365.055ZM422.032 360.913C422.032 359.939 422.154 358.839 422.419 357.603L417.53 356.555C417.205 358.072 417.032 359.527 417.032 360.913H422.032ZM422.419 357.603C422.712 356.234 422.981 355.016 423.223 353.947L418.348 352.839C418.099 353.932 417.827 355.171 417.53 356.555L422.419 357.603ZM423.215 353.982C423.956 350.924 425.046 347.956 426.487 345.073L422.015 342.837C420.409 346.05 419.188 349.373 418.356 352.804L423.215 353.982ZM426.487 345.073C427.948 342.151 429.644 339.371 431.577 336.732L427.542 333.778C425.444 336.644 423.602 339.664 422.015 342.837L426.487 345.073ZM431.577 336.732C433.521 334.076 435.655 331.562 437.981 329.189L434.41 325.69C431.918 328.232 429.629 330.928 427.542 333.778L431.577 336.732ZM437.998 329.172C440.338 326.736 442.769 324.496 445.291 322.45L442.141 318.567C439.453 320.748 436.87 323.129 434.393 325.707L437.998 329.172ZM445.299 322.444C448.37 319.931 451.373 318.173 454.303 317.107L452.594 312.408C449.035 313.702 445.55 315.778 442.133 318.574L445.299 322.444ZM454.303 317.107C457.258 316.032 460.409 315.488 463.771 315.488V310.488C459.858 310.488 456.126 311.124 452.594 312.408L454.303 317.107ZM463.771 315.488C465.214 315.488 466.575 315.558 467.854 315.695L468.387 310.724C466.914 310.566 465.374 310.488 463.771 310.488V315.488ZM467.863 315.696C469.077 315.822 470.177 316.09 471.174 316.489L473.031 311.847C471.57 311.262 470.015 310.892 468.378 310.723L467.863 315.696ZM471.284 316.53C472.246 316.863 473.152 317.386 474.007 318.124L477.275 314.34C475.968 313.211 474.514 312.357 472.92 311.806L471.284 316.53ZM474.058 318.167C474.872 318.833 475.677 319.775 476.447 321.058L480.734 318.485C479.734 316.819 478.573 315.401 477.224 314.298L474.058 318.167ZM476.42 321.012C476.453 321.07 476.522 321.221 476.581 321.515L481.484 320.535C481.346 319.846 481.121 319.161 480.761 318.531L476.42 321.012ZM476.661 321.815C476.752 322.087 476.754 322.206 476.754 322.205H481.754C481.754 321.515 481.609 320.847 481.404 320.234L476.661 321.815ZM476.754 322.205C476.754 322.193 476.754 322.243 476.741 322.388C476.729 322.521 476.71 322.699 476.681 322.927C476.624 323.383 476.536 323.994 476.415 324.768L481.355 325.54C481.59 324.041 481.754 322.836 481.754 322.205H476.754ZM476.406 324.834C476.215 326.312 475.926 328.193 475.536 330.485L480.465 331.324C480.861 328.996 481.162 327.043 481.365 325.474L476.406 324.834ZM475.529 330.529C475.19 332.753 474.754 335.278 474.217 338.107L479.13 339.039C479.674 336.165 480.122 333.579 480.472 331.281L475.529 330.529ZM474.211 338.141C473.721 340.933 473.206 343.776 472.667 346.667L477.583 347.584C478.125 344.675 478.643 341.816 479.136 339.005L474.211 338.141ZM472.669 346.66C472.129 349.508 471.588 352.332 471.048 355.131L475.958 356.078C476.499 353.274 477.04 350.445 477.581 347.591L472.669 346.66ZM471.05 355.123C470.512 357.86 470 360.321 469.514 362.509L474.395 363.594C474.892 361.358 475.412 358.855 475.956 356.086L471.05 355.123ZM469.511 362.525C468.692 366.331 467.654 370.265 466.396 374.33L471.172 375.809C472.47 371.615 473.546 367.538 474.399 363.577L469.511 362.525ZM466.388 374.356C465.194 378.369 463.712 382.288 461.944 386.112L466.482 388.211C468.351 384.17 469.917 380.027 471.18 375.782L466.388 374.356ZM461.933 386.135C460.225 389.932 458.209 393.511 455.888 396.874L460.003 399.714C462.499 396.098 464.662 392.255 466.493 388.187L461.933 386.135ZM455.888 396.874C453.61 400.176 450.968 403.048 447.961 405.499L451.12 409.375C454.503 406.616 457.465 403.393 460.003 399.714L455.888 396.874ZM447.943 405.514C444.969 407.985 441.599 409.936 437.818 411.366L439.586 416.043C443.866 414.425 447.722 412.198 451.138 409.36L447.943 405.514ZM437.793 411.375C434.095 412.819 429.887 413.563 425.136 413.563V418.563C430.412 418.563 435.249 417.735 439.611 416.033L437.793 411.375ZM430.01 354.408C429.858 355.014 429.707 355.643 429.557 356.296L434.429 357.42C434.573 356.795 434.717 356.195 434.86 355.621L430.01 354.408ZM429.527 356.447C429.406 357.171 429.345 357.898 429.345 358.627H434.345C434.345 358.177 434.383 357.725 434.459 357.269L429.527 356.447ZM429.345 358.627C429.345 360.009 429.597 361.343 430.199 362.547L434.671 360.311C434.487 359.943 434.345 359.408 434.345 358.627H429.345ZM430.199 362.547C430.603 363.355 431.221 364.042 432.057 364.503C432.869 364.951 433.746 365.109 434.573 365.109V360.109C434.369 360.109 434.372 360.07 434.472 360.125C434.522 360.152 434.572 360.191 434.614 360.235C434.633 360.256 434.648 360.275 434.658 360.289C434.667 360.303 434.671 360.312 434.671 360.311L430.199 362.547ZM434.573 365.109C436.751 365.109 439.054 364.36 441.409 363.129L439.092 358.698C437.122 359.728 435.639 360.109 434.573 360.109V365.109ZM441.427 363.119C443.798 361.854 446.121 360.285 448.396 358.424L445.229 354.554C443.179 356.232 441.127 357.613 439.074 358.707L441.427 363.119ZM448.374 358.441C450.682 356.595 452.837 354.595 454.838 352.439L451.174 349.037C449.341 351.011 447.367 352.844 445.251 354.537L448.374 358.441ZM454.816 352.462C456.871 350.304 458.542 348.195 459.79 346.134L455.512 343.545C454.499 345.22 453.073 347.043 451.196 349.014L454.816 352.462ZM459.771 346.165C460.288 345.338 460.945 344.224 461.738 342.836L457.397 340.355C456.617 341.72 455.997 342.769 455.531 343.515L459.771 346.165ZM461.705 342.893C462.579 341.453 463.423 339.918 464.237 338.29L459.765 336.054C459.006 337.571 458.228 338.985 457.431 340.298L461.705 342.893ZM464.223 338.317C465.091 336.633 465.86 334.968 466.529 333.32L461.897 331.438C461.288 332.937 460.582 334.467 459.779 336.027L464.223 338.317ZM466.539 333.296C467.227 331.549 467.694 329.908 467.875 328.401L462.91 327.805C462.796 328.755 462.477 329.966 461.887 331.463L466.539 333.296ZM467.893 328.103C467.893 326.913 467.645 325.764 467.113 324.699L462.64 326.935C462.796 327.247 462.893 327.621 462.893 328.103H467.893ZM467.142 324.76C466.921 324.286 466.674 323.503 466.447 322.322L461.537 323.267C461.801 324.642 462.144 325.874 462.611 326.875L467.142 324.76ZM463.992 320.294H463.328V325.294H463.992V320.294ZM463.328 320.294C461.61 320.294 459.855 320.86 458.126 321.753L460.42 326.196C461.738 325.515 462.687 325.294 463.328 325.294V320.294ZM458.184 321.724C456.506 322.536 454.762 323.597 452.954 324.889L455.86 328.958C457.492 327.792 458.992 326.887 460.362 326.225L458.184 321.724ZM452.926 324.909C451.175 326.197 449.411 327.655 447.632 329.281L451.006 332.971C452.669 331.451 454.296 330.108 455.888 328.937L452.926 324.909ZM447.662 329.255C445.886 330.827 444.209 332.453 442.631 334.133L446.275 337.556C447.745 335.992 449.312 334.472 450.977 332.997L447.662 329.255ZM442.658 334.105C441.096 335.717 439.655 337.309 438.335 338.883L442.166 342.096C443.402 340.623 444.762 339.118 446.249 337.584L442.658 334.105ZM438.33 338.889C437.054 340.42 436.013 341.826 435.24 343.098L439.51 345.697C440.113 344.707 440.989 343.508 442.171 342.09L438.33 338.889ZM435.266 343.055C434.198 344.733 433.206 346.437 432.29 348.168L436.709 350.507C437.562 348.896 438.487 347.307 439.484 345.74L435.266 343.055ZM432.277 348.193C431.336 350.018 430.587 352.098 430.01 354.408L434.86 355.621C435.364 353.605 435.991 351.9 436.722 350.482L432.277 348.193Z" fill="#454545"/>
<path d="M135.578 251.406C136.815 246.458 138.54 240.957 140.754 234.902C142.967 228.848 145.507 222.533 148.371 215.957C151.301 209.382 154.491 202.708 157.941 195.938C161.457 189.167 165.07 182.591 168.781 176.211C172.557 169.766 176.398 163.711 180.305 158.047C184.276 152.318 188.182 147.207 192.023 142.715C193.13 141.478 194.497 139.948 196.125 138.125C197.818 136.302 199.673 134.414 201.691 132.461C203.775 130.508 205.923 128.587 208.137 126.699C210.415 124.746 212.694 123.021 214.973 121.523C217.251 119.961 219.465 118.724 221.613 117.812C223.762 116.836 225.747 116.348 227.57 116.348C230.044 116.348 232.29 116.771 234.309 117.617C236.392 118.464 238.15 119.668 239.582 121.23C241.079 122.793 242.219 124.681 243 126.895C243.846 129.043 244.27 131.419 244.27 134.023C244.27 135.13 244.172 136.237 243.977 137.344C243.846 138.451 243.651 139.59 243.391 140.762L232.551 195.254C233.527 193.757 234.895 191.738 236.652 189.199C238.41 186.595 240.396 183.73 242.609 180.605C244.823 177.415 247.134 174.128 249.543 170.742C251.952 167.292 254.296 163.971 256.574 160.781C258.918 157.591 261.066 154.694 263.02 152.09C264.973 149.421 266.568 147.272 267.805 145.645L269.562 143.398C270.734 141.901 272.167 140.143 273.859 138.125C275.552 136.107 277.408 133.991 279.426 131.777C281.509 129.564 283.69 127.383 285.969 125.234C288.247 123.086 290.559 121.165 292.902 119.473C295.246 117.78 297.557 116.413 299.836 115.371C302.115 114.264 304.296 113.711 306.379 113.711C307.941 113.711 309.243 114.069 310.285 114.785C311.327 115.501 312.173 116.478 312.824 117.715C313.475 118.887 313.931 120.286 314.191 121.914C314.452 123.542 314.582 125.234 314.582 126.992C314.582 129.727 314.354 132.493 313.898 135.293C313.443 138.092 312.922 140.632 312.336 142.91C312.01 144.733 311.555 147.337 310.969 150.723C310.448 154.108 309.797 158.014 309.016 162.441C308.299 166.803 307.518 171.556 306.672 176.699C305.826 181.777 304.947 186.953 304.035 192.227C303.189 197.5 302.31 202.708 301.398 207.852C300.552 212.995 299.738 217.812 298.957 222.305C298.241 226.732 297.557 230.703 296.906 234.219C296.32 237.734 295.832 240.469 295.441 242.422C295.246 243.333 294.921 244.57 294.465 246.133C294.074 247.695 293.456 249.225 292.609 250.723C291.828 252.22 290.754 253.522 289.387 254.629C288.085 255.736 286.457 256.289 284.504 256.289C283.462 256.289 282.453 255.964 281.477 255.312C280.565 254.596 279.719 253.717 278.938 252.676C278.221 251.634 277.635 250.527 277.18 249.355C276.789 248.118 276.561 247.012 276.496 246.035L296.809 149.551C297.004 148.639 297.167 147.826 297.297 147.109C297.427 146.393 297.492 145.71 297.492 145.059C297.492 144.342 297.395 143.691 297.199 143.105C297.069 142.52 296.939 141.966 296.809 141.445C296.613 140.859 296.418 140.339 296.223 139.883C293.293 142.096 290.135 144.928 286.75 148.379C283.43 151.764 280.044 155.573 276.594 159.805C273.208 163.971 269.79 168.431 266.34 173.184C262.954 177.871 259.732 182.591 256.672 187.344C254.263 191.055 251.659 194.961 248.859 199.062C246.125 203.164 243.358 207.298 240.559 211.465C237.759 215.566 235.025 219.701 232.355 223.867C229.751 227.969 227.375 231.908 225.227 235.684C224.185 237.507 223.111 239.85 222.004 242.715C220.897 245.579 219.66 248.379 218.293 251.113C216.991 253.848 215.559 256.191 213.996 258.145C212.499 260.098 210.773 261.074 208.82 261.074C207.323 261.074 206.053 260.846 205.012 260.391C204.035 259.935 203.254 259.349 202.668 258.633C202.082 257.852 201.659 256.973 201.398 255.996C201.138 254.954 201.008 253.848 201.008 252.676C201.008 251.178 201.138 249.681 201.398 248.184C201.724 246.686 202.049 245.254 202.375 243.887C203.742 238.158 205.174 232.461 206.672 226.797C208.169 221.133 209.699 215.339 211.262 209.414C212.889 203.49 214.549 197.37 216.242 191.055C217.935 184.674 219.66 177.904 221.418 170.742C221.874 168.724 222.395 166.478 222.98 164.004C223.566 161.465 224.12 158.926 224.641 156.387C225.161 153.783 225.585 151.276 225.91 148.867C226.236 146.458 226.398 144.31 226.398 142.422C226.398 140.729 226.268 139.395 226.008 138.418C225.747 137.376 225.259 136.855 224.543 136.855C222.134 136.855 219.595 137.767 216.926 139.59C214.257 141.348 211.555 143.691 208.82 146.621C206.086 149.551 203.384 152.904 200.715 156.68C198.046 160.456 195.507 164.362 193.098 168.398C190.689 172.37 188.443 176.309 186.359 180.215C184.276 184.121 182.486 187.637 180.988 190.762C180.663 191.413 180.174 192.324 179.523 193.496C178.938 194.603 178.124 196.198 177.082 198.281C176.105 200.299 174.868 202.904 173.371 206.094C171.939 209.284 170.214 213.32 168.195 218.203C166.242 223.086 163.964 228.913 161.359 235.684C158.755 242.454 155.826 250.397 152.57 259.512C151.984 261.074 150.943 262.344 149.445 263.32C148.013 264.297 146.516 264.785 144.953 264.785C141.568 264.785 139.061 263.874 137.434 262.051C135.871 260.228 135.09 257.982 135.09 255.312C135.09 254.141 135.253 252.839 135.578 251.406Z" fill="#454545"/>
<path d="M339.777 203.945C340.363 201.406 341.047 198.607 341.828 195.547C342.674 192.422 343.553 189.199 344.465 185.879C345.441 182.559 346.418 179.206 347.395 175.82C348.371 172.435 349.315 169.18 350.227 166.055C351.203 162.93 352.082 160.033 352.863 157.363C353.645 154.629 354.328 152.318 354.914 150.43C356.151 146.198 357.323 141.966 358.43 137.734C359.536 133.438 360.611 128.945 361.652 124.258C362.954 121.719 364.712 119.928 366.926 118.887C369.139 117.78 371.548 117.227 374.152 117.227C376.236 118.333 377.863 119.863 379.035 121.816C380.272 123.704 380.891 125.853 380.891 128.262C380.891 129.954 380.598 131.908 380.012 134.121C379.491 136.27 378.807 138.613 377.961 141.152C377.115 143.626 376.171 146.263 375.129 149.062C374.087 151.797 373.078 154.629 372.102 157.559C370.279 162.897 368.456 168.236 366.633 173.574C364.81 178.913 363.02 184.544 361.262 190.469C360.806 192.031 360.318 193.594 359.797 195.156C359.276 196.719 358.723 198.411 358.137 200.234C357.616 202.057 357.03 204.108 356.379 206.387C355.728 208.6 355.077 211.172 354.426 214.102C353.645 217.552 352.961 221.035 352.375 224.551C351.789 228.001 351.236 231.484 350.715 235C350.194 238.516 349.608 242.064 348.957 245.645C348.306 249.225 347.525 252.839 346.613 256.484C346.288 257.786 345.702 258.958 344.855 260C344.074 260.977 343.163 261.823 342.121 262.539C341.079 263.255 339.973 263.809 338.801 264.199C337.629 264.59 336.522 264.785 335.48 264.785C334.439 264.785 333.43 264.688 332.453 264.492C331.542 264.362 330.826 264.004 330.305 263.418C329.523 262.572 328.905 261.628 328.449 260.586C327.993 259.544 327.766 258.438 327.766 257.266C327.766 256.94 327.766 256.647 327.766 256.387C327.831 256.061 327.896 255.736 327.961 255.41L339.777 203.945Z" fill="#96F835"/>
</svg>
